<?xml version="1.0" encoding="utf-8"?>
<!-- Generator: Adobe Illustrator 27.5.0, SVG Export Plug-In . SVG Version: 6.00 Build 0)  -->
<svg version="1.1" xmlns="http://www.w3.org/2000/svg" xmlns:xlink="http://www.w3.org/1999/xlink" x="0px" y="0px"
	 viewBox="0 0 500 500" style="enable-background:new 0 0 500 500;" xml:space="preserve">
<g id="BACKGROUND">
	<rect style="fill:none;" width="500" height="500"/>
</g>
<g id="OBJECTS">
	<g>
		<g>
			<g>
				<path style="fill:#264360;" d="M129.789,399.929h11.303v51.723h-11.303c-1.093,0-2.067-0.725-2.356-1.78
					c-4.313-15.765-4.313-32.399,0-48.164C127.721,400.654,128.696,399.929,129.789,399.929z"/>
				<path style="fill:#EBEBEB;" d="M131.722,451.656h279.103v-1.609c-2.551-5.313-4.225-14.203-4.225-24.262
					c0-10.06,1.674-18.94,4.225-24.253v-1.6H131.722C126.729,416.812,126.729,434.773,131.722,451.656z"/>
				<path style="fill:#508CC9;" d="M411.572,451.652H132.645v-2.671h278.927c0.738,0,1.335,0.598,1.335,1.335l0,0
					C412.907,451.054,412.309,451.652,411.572,451.652z"/>
				<path style="fill:#508CC9;" d="M411.572,402.6h-278.34v-2.671h278.34c0.738,0,1.335,0.598,1.335,1.335l0,0
					C412.907,402.002,412.309,402.6,411.572,402.6z"/>
				<g>
					<defs>
						<path id="SVGID_1_" d="M131.722,451.656h279.103v-1.609c-2.551-5.313-4.225-14.203-4.225-24.262
							c0-10.06,1.674-18.94,4.225-24.253v-1.6H131.722C126.729,416.812,126.729,434.773,131.722,451.656z"/>
					</defs>
					<clipPath id="SVGID_00000145046288167119217320000003378638694906039945_">
						<use xlink:href="#SVGID_1_"  style="overflow:visible;"/>
					</clipPath>
					<g style="clip-path:url(#SVGID_00000145046288167119217320000003378638694906039945_);">
						
							<line style="fill:none;stroke:#D6D6D6;stroke-width:0.75;stroke-miterlimit:10;" x1="413.472" y1="445.996" x2="132.509" y2="445.996"/>
						
							<line style="fill:none;stroke:#D6D6D6;stroke-width:0.75;stroke-miterlimit:10;" x1="413.429" y1="441.959" x2="132.466" y2="441.959"/>
						
							<line style="fill:none;stroke:#D6D6D6;stroke-width:0.75;stroke-miterlimit:10;" x1="413.386" y1="437.922" x2="132.423" y2="437.922"/>
						
							<line style="fill:none;stroke:#D6D6D6;stroke-width:0.75;stroke-miterlimit:10;" x1="413.343" y1="433.885" x2="132.38" y2="433.885"/>
						
							<line style="fill:none;stroke:#D6D6D6;stroke-width:0.75;stroke-miterlimit:10;" x1="413.3" y1="429.848" x2="132.338" y2="429.848"/>
						
							<line style="fill:none;stroke:#D6D6D6;stroke-width:0.75;stroke-miterlimit:10;" x1="413.258" y1="425.811" x2="132.295" y2="425.811"/>
						
							<line style="fill:none;stroke:#D6D6D6;stroke-width:0.75;stroke-miterlimit:10;" x1="413.215" y1="421.774" x2="132.252" y2="421.774"/>
						
							<line style="fill:none;stroke:#D6D6D6;stroke-width:0.75;stroke-miterlimit:10;" x1="413.172" y1="417.737" x2="132.209" y2="417.737"/>
						
							<line style="fill:none;stroke:#D6D6D6;stroke-width:0.75;stroke-miterlimit:10;" x1="413.129" y1="413.7" x2="132.166" y2="413.7"/>
						
							<line style="fill:none;stroke:#D6D6D6;stroke-width:0.75;stroke-miterlimit:10;" x1="413.086" y1="409.663" x2="132.123" y2="409.663"/>
						
							<line style="fill:none;stroke:#D6D6D6;stroke-width:0.75;stroke-miterlimit:10;" x1="413.043" y1="405.626" x2="132.08" y2="405.626"/>
					</g>
				</g>
				<path style="fill:#CCCCCC;" d="M132.187,401.042h1.215c3.736,16.147,3.736,33.337,0,49.491l-2.499-2.736l-0.642-24.608
					L132.187,401.042z"/>
				<path style="fill:#508CC9;" d="M134.55,399.931h-3.532c-4.987,16.881-4.987,34.845,0,51.718h3.532
					C129.563,434.776,129.563,416.812,134.55,399.931z"/>
			</g>
		</g>
		<g>
			<defs>
				<path id="SVGID_00000142177998766486706540000013288964063667780536_" d="M411.572,448.981h-1.225
					c-2.28-5.393-3.746-13.782-3.746-23.197c0-9.413,1.466-17.792,3.744-23.184h1.227c0.737,0,1.335-0.598,1.335-1.336
					c0-0.738-0.598-1.335-1.335-1.335h-270.48v0h-11.303c-1.093,0-2.067,0.725-2.356,1.78c-4.313,15.765-4.313,32.399,0,48.164
					c0.288,1.054,1.263,1.78,2.356,1.78h1.933c0,0.001,0.001,0.002,0.001,0.004h279.103v-0.004h0.746
					c0.737,0,1.335-0.598,1.335-1.336C412.907,449.579,412.309,448.981,411.572,448.981z"/>
			</defs>
			<clipPath id="SVGID_00000085937551515567692990000007246994015026394027_">
				<use xlink:href="#SVGID_00000142177998766486706540000013288964063667780536_"  style="overflow:visible;"/>
			</clipPath>
			
				<linearGradient id="SVGID_00000047745369254393735180000006482173016603012261_" gradientUnits="userSpaceOnUse" x1="300.4419" y1="400.2547" x2="311.184" y2="400.2547" gradientTransform="matrix(0 -1 -1 0 670.7741 752.0906)">
				<stop  offset="0" style="stop-color:#000B17;stop-opacity:0.5"/>
				<stop  offset="0.9963" style="stop-color:#000000;stop-opacity:0"/>
			</linearGradient>
			
				<polygon style="clip-path:url(#SVGID_00000085937551515567692990000007246994015026394027_);fill:url(#SVGID_00000047745369254393735180000006482173016603012261_);" points="
				122.404,440.907 122.404,451.649 418.635,451.649 418.635,440.907 			"/>
			
				<linearGradient id="SVGID_00000074403506520075018690000014665598601223889557_" gradientUnits="userSpaceOnUse" x1="310.54" y1="-884.2505" x2="321.2821" y2="-884.2505" gradientTransform="matrix(0 1 1 0 1154.77 89.4118)">
				<stop  offset="0" style="stop-color:#000B17;stop-opacity:0.5"/>
				<stop  offset="0.9963" style="stop-color:#000000;stop-opacity:0"/>
			</linearGradient>
			
				<polygon style="clip-path:url(#SVGID_00000085937551515567692990000007246994015026394027_);fill:url(#SVGID_00000074403506520075018690000014665598601223889557_);" points="
				418.635,410.694 418.635,399.952 122.404,399.952 122.404,410.694 			"/>
		</g>
	</g>
	<g>
		<g>
			<path style="fill:#73B2BA;" d="M422.684,166.464H200.263c-2.486,8.414-2.486,17.368,0,25.782h222.421
				C425.171,183.831,425.171,174.878,422.684,166.464z"/>
			<path style="fill:#52959E;" d="M222.263,192.246h-13.749c-2.486-8.416-2.486-17.369,0-25.785h13.749
				C219.778,174.878,219.778,183.83,222.263,192.246z"/>
			<path style="fill:#52959E;" d="M234.756,192.246h-6.874c-2.486-8.416-2.486-17.369,0-25.785h6.874
				C232.27,174.878,232.27,183.83,234.756,192.246z"/>
			<path style="fill:#52959E;" d="M289.359,192.246h-6.874c-2.486-8.416-2.486-17.369,0-25.785h6.874
				C286.873,174.878,286.873,183.83,289.359,192.246z"/>
			<path style="fill:#52959E;" d="M266.47,188.271h-19.978c-4.925,0-8.917-3.992-8.917-8.917v0c0-4.925,3.992-8.917,8.917-8.917
				h19.978c4.925,0,8.917,3.992,8.917,8.917v0C275.387,184.279,271.395,188.271,266.47,188.271z"/>
			<path style="fill:#52959E;" d="M401.375,192.246h13.749c2.486-8.416,2.486-17.369,0-25.785h-13.749
				C403.861,174.878,403.861,183.83,401.375,192.246z"/>
			<path style="fill:#52959E;" d="M388.883,192.246h6.874c2.486-8.416,2.486-17.369,0-25.785h-6.874
				C391.368,174.878,391.368,183.83,388.883,192.246z"/>
			<path style="fill:#52959E;" d="M333.588,192.246h6.874c2.486-8.416,2.486-17.369,0-25.785h-6.874
				C336.074,174.878,336.074,183.83,333.588,192.246z"/>
			<path style="fill:#52959E;" d="M357.018,188.271h19.978c4.925,0,8.917-3.992,8.917-8.917v0c0-4.925-3.992-8.917-8.917-8.917
				h-19.978c-4.925,0-8.917,3.992-8.917,8.917v0C348.101,184.279,352.094,188.271,357.018,188.271z"/>
			<path style="fill:#52959E;" d="M301.485,188.271h19.978c4.925,0,8.917-3.992,8.917-8.917v0c0-4.925-3.992-8.917-8.917-8.917
				h-19.978c-4.925,0-8.917,3.992-8.917,8.917v0C292.568,184.279,296.56,188.271,301.485,188.271z"/>
		</g>
		<g>
			<defs>
				<path id="SVGID_00000051363003949208620610000015393341614040988604_" d="M422.684,166.464H200.263
					c-2.486,8.414-2.486,17.368,0,25.782h222.421C425.171,183.831,425.171,174.878,422.684,166.464z"/>
			</defs>
			<clipPath id="SVGID_00000098192330310052482630000016862276461401614478_">
				<use xlink:href="#SVGID_00000051363003949208620610000015393341614040988604_"  style="overflow:visible;"/>
			</clipPath>
			
				<linearGradient id="SVGID_00000145776885049265794200000011917341007909681056_" gradientUnits="userSpaceOnUse" x1="485.8467" y1="359.6754" x2="492.902" y2="359.6754" gradientTransform="matrix(0 -1 -1 0 670.7741 677.9668)">
				<stop  offset="0" style="stop-color:#000B17;stop-opacity:0.5"/>
				<stop  offset="0.9963" style="stop-color:#000000;stop-opacity:0"/>
			</linearGradient>
			
				<polygon style="clip-path:url(#SVGID_00000098192330310052482630000016862276461401614478_);fill:url(#SVGID_00000145776885049265794200000011917341007909681056_);" points="
				195.797,185.065 195.797,192.12 426.4,192.12 426.4,185.065 			"/>
			
				<linearGradient id="SVGID_00000068653656626689656280000003654841220692603540_" gradientUnits="userSpaceOnUse" x1="479.6706" y1="-930.2753" x2="486.7259" y2="-930.2753" gradientTransform="matrix(0 1 1 0 1241.374 -313.2477)">
				<stop  offset="0" style="stop-color:#000B17;stop-opacity:0.5"/>
				<stop  offset="0.9963" style="stop-color:#000000;stop-opacity:0"/>
			</linearGradient>
			
				<polygon style="clip-path:url(#SVGID_00000098192330310052482630000016862276461401614478_);fill:url(#SVGID_00000068653656626689656280000003654841220692603540_);" points="
				426.4,173.478 426.4,166.423 195.797,166.423 195.797,173.478 			"/>
		</g>
	</g>
	<g>
		<g>
			<path style="fill:#E3544B;" d="M386.431,325.603H134.069c-3.449,11.671-3.449,24.09,0,35.761h252.362
				C389.88,349.694,389.88,337.274,386.431,325.603z"/>
			<path style="fill:#A63D38;" d="M380.271,361.366h-15.533c3.455-11.676,3.455-24.094,0-35.759h15.533
				C383.726,337.272,383.726,349.69,380.271,361.366z"/>
			<path style="fill:#A63D38;" d="M310.822,361.366h-15.533c3.455-11.676,3.455-24.094,0-35.759h15.533
				C314.277,337.272,314.277,349.69,310.822,361.366z"/>
			<path style="fill:#A63D38;" d="M292.505,361.366h-15.533c3.455-11.676,3.455-24.094,0-35.759h15.533
				C295.96,337.272,295.96,349.69,292.505,361.366z"/>
			<path style="fill:#A63D38;" d="M360.528,361.366h-45.138c3.455-11.676,3.455-24.094,0-35.759h45.138
				C363.983,337.272,363.983,349.69,360.528,361.366z"/>
			<circle style="fill:#E3544B;" cx="341.75" cy="343.425" r="11.602"/>
			<path style="fill:#A63D38;" d="M140.322,361.366h15.533c-3.455-11.676-3.455-24.094,0-35.759h-15.533
				C136.867,337.272,136.867,349.69,140.322,361.366z"/>
			<path style="fill:#A63D38;" d="M209.77,361.366h15.533c-3.455-11.676-3.455-24.094,0-35.759H209.77
				C206.315,337.272,206.315,349.69,209.77,361.366z"/>
			<path style="fill:#A63D38;" d="M229.039,361.366h15.533c-3.455-11.676-3.455-24.094,0-35.759h-15.533
				C225.584,337.272,225.584,349.69,229.039,361.366z"/>
			<path style="fill:#A63D38;" d="M160.065,361.366h45.137c-3.455-11.676-3.455-24.094,0-35.759h-45.137
				C156.609,337.272,156.609,349.69,160.065,361.366z"/>
			<circle style="fill:#E3544B;" cx="178.843" cy="343.425" r="11.602"/>
			<circle style="fill:#A63D38;" cx="261.799" cy="343.425" r="11.602"/>
		</g>
		<g>
			<defs>
				<path id="SVGID_00000162338962163527184380000008087466142496602550_" d="M386.431,325.603H134.069
					c-3.449,11.671-3.449,24.09,0,35.761h252.362C389.88,349.694,389.88,337.274,386.431,325.603z"/>
			</defs>
			<clipPath id="SVGID_00000124870083265032895970000016823613709506561432_">
				<use xlink:href="#SVGID_00000162338962163527184380000008087466142496602550_"  style="overflow:visible;"/>
			</clipPath>
			
				<linearGradient id="SVGID_00000172398572112598749400000003410395253936859287_" gradientUnits="userSpaceOnUse" x1="390.7319" y1="410.4113" x2="397.8921" y2="410.4113" gradientTransform="matrix(0 -1 -1 0 670.7741 752.0906)">
				<stop  offset="0" style="stop-color:#000B17;stop-opacity:0.5"/>
				<stop  offset="0.9963" style="stop-color:#000000;stop-opacity:0"/>
			</linearGradient>
			
				<polygon style="clip-path:url(#SVGID_00000124870083265032895970000016823613709506561432_);fill:url(#SVGID_00000172398572112598749400000003410395253936859287_);" points="
				129.278,354.198 129.278,361.359 391.448,361.359 391.448,354.198 			"/>
			
				<linearGradient id="SVGID_00000137822161760623216370000009108256911694467764_" gradientUnits="userSpaceOnUse" x1="387.8533" y1="-846.5881" x2="395.0136" y2="-846.5881" gradientTransform="matrix(0 1 1 0 1106.9509 -62.2589)">
				<stop  offset="0" style="stop-color:#000B17;stop-opacity:0.5"/>
				<stop  offset="0.9963" style="stop-color:#000000;stop-opacity:0"/>
			</linearGradient>
			
				<polygon style="clip-path:url(#SVGID_00000124870083265032895970000016823613709506561432_);fill:url(#SVGID_00000137822161760623216370000009108256911694467764_);" points="
				391.448,332.755 391.448,325.594 129.278,325.594 129.278,332.755 			"/>
		</g>
	</g>
	<g>
		<g>
			<g>
				<path style="fill:#E3544B;" d="M232.205,98.798h97.789c2.175-7.36,2.175-15.191,0-22.551h-97.789V98.798z"/>
				<path style="fill:#EBEBEB;" d="M235.783,98.799h-49.99v-0.702c1.112-2.317,1.842-6.192,1.842-10.579s-0.73-8.258-1.842-10.575
					v-0.698h49.99C237.96,83.607,237.96,91.439,235.783,98.799z"/>
				<path style="fill:#FF766E;" d="M185.468,98.798h49.913v-1.164h-49.913c-0.321,0-0.582,0.261-0.582,0.582l0,0
					C184.885,98.537,185.146,98.798,185.468,98.798z"/>
				<path style="fill:#FF766E;" d="M185.468,77.411h49.657v-1.165h-49.657c-0.321,0-0.582,0.261-0.582,0.582l0,0
					C184.885,77.15,185.146,77.411,185.468,77.411z"/>
				<g>
					<defs>
						<path id="SVGID_00000049905635261175330520000007210812945208206776_" d="M235.783,98.799h-49.99v-0.702
							c1.112-2.317,1.842-6.192,1.842-10.579s-0.73-8.258-1.842-10.575v-0.698h49.99C237.96,83.607,237.96,91.439,235.783,98.799z"
							/>
					</defs>
					<clipPath id="SVGID_00000001631143333061242490000016151229335135146640_">
						<use xlink:href="#SVGID_00000049905635261175330520000007210812945208206776_"  style="overflow:visible;"/>
					</clipPath>
					<g style="clip-path:url(#SVGID_00000001631143333061242490000016151229335135146640_);">
						
							<line style="fill:none;stroke:#D6D6D6;stroke-width:0.75;stroke-miterlimit:10;" x1="184.639" y1="96.332" x2="235.44" y2="96.332"/>
						
							<line style="fill:none;stroke:#D6D6D6;stroke-width:0.75;stroke-miterlimit:10;" x1="184.658" y1="94.572" x2="235.458" y2="94.572"/>
						
							<line style="fill:none;stroke:#D6D6D6;stroke-width:0.75;stroke-miterlimit:10;" x1="184.677" y1="92.811" x2="235.477" y2="92.811"/>
						
							<line style="fill:none;stroke:#D6D6D6;stroke-width:0.75;stroke-miterlimit:10;" x1="184.695" y1="91.051" x2="235.496" y2="91.051"/>
						
							<line style="fill:none;stroke:#D6D6D6;stroke-width:0.75;stroke-miterlimit:10;" x1="184.714" y1="89.291" x2="235.514" y2="89.291"/>
						
							<line style="fill:none;stroke:#D6D6D6;stroke-width:0.75;stroke-miterlimit:10;" x1="184.733" y1="87.531" x2="235.533" y2="87.531"/>
						
							<line style="fill:none;stroke:#D6D6D6;stroke-width:0.75;stroke-miterlimit:10;" x1="184.751" y1="85.771" x2="235.552" y2="85.771"/>
						
							<line style="fill:none;stroke:#D6D6D6;stroke-width:0.75;stroke-miterlimit:10;" x1="184.77" y1="84.011" x2="235.57" y2="84.011"/>
						
							<line style="fill:none;stroke:#D6D6D6;stroke-width:0.75;stroke-miterlimit:10;" x1="184.789" y1="82.251" x2="235.589" y2="82.251"/>
						
							<line style="fill:none;stroke:#D6D6D6;stroke-width:0.75;stroke-miterlimit:10;" x1="184.807" y1="80.49" x2="235.608" y2="80.49"/>
						
							<line style="fill:none;stroke:#D6D6D6;stroke-width:0.75;stroke-miterlimit:10;" x1="184.826" y1="78.73" x2="235.626" y2="78.73"/>
					</g>
				</g>
				<path style="fill:#CCCCCC;" d="M235.58,76.731h-0.53c-1.629,7.04-1.629,14.535,0,21.578l1.089-1.193l0.28-10.729L235.58,76.731z
					"/>
				<path style="fill:#FF766E;" d="M234.55,76.247h1.54c2.174,7.36,2.174,15.192,0,22.549h-1.54
					C236.724,91.44,236.724,83.607,234.55,76.247z"/>
			</g>
			<path style="fill:#A63D38;" d="M322.144,98.801h-6.725c2.176-7.364,2.176-15.193,0-22.557h6.725
				C324.32,83.609,324.32,91.437,322.144,98.801z"/>
			<path style="fill:#A63D38;" d="M251.137,98.801h-6.725c2.176-7.364,2.176-15.193,0-22.557h6.725
				C253.313,83.609,253.313,91.437,251.137,98.801z"/>
			<path style="fill:#A63D38;" d="M242.363,98.801h-3.049c2.176-7.364,2.176-15.193,0-22.557h3.049
				C244.539,83.609,244.539,91.437,242.363,98.801z"/>
			<path style="fill:#A63D38;" d="M327.174,98.801h-3.048c2.176-7.364,2.176-15.193,0-22.557h3.048
				C329.35,83.609,329.35,91.437,327.174,98.801z"/>
			<path style="fill:#A63D38;" d="M309.761,96.202h-50.835c0.234-2.082-1.394-3.921-3.489-3.903c0.384-3.172,0.384-6.381,0-9.553
				c2.095,0.018,3.723-1.82,3.489-3.903h50.835c0.27,1.713,1.749,2.999,3.484,2.977c0.548,3.781,0.548,7.623,0,11.404
				C311.51,93.203,310.031,94.489,309.761,96.202z"/>
		</g>
		<g>
			<defs>
				<path id="SVGID_00000123409777246678946070000006073769010097285002_" d="M329.994,76.246h-94.87h-2.919h-46.738
					c-0.321,0-0.582,0.261-0.582,0.582c0,0.322,0.261,0.582,0.582,0.582h0.523c0.998,2.35,1.644,5.994,1.644,10.108
					c0,4.115-0.647,7.764-1.645,10.114h-0.522c-0.321,0-0.582,0.261-0.582,0.582c0,0.322,0.261,0.582,0.582,0.582h0.325v0.002h49.99
					c0,0,0-0.001,0-0.002h94.211C332.169,91.438,332.169,83.606,329.994,76.246z"/>
			</defs>
			<clipPath id="SVGID_00000043440579570066616690000004942906480533250217_">
				<use xlink:href="#SVGID_00000123409777246678946070000006073769010097285002_"  style="overflow:visible;"/>
			</clipPath>
			
				<linearGradient id="SVGID_00000039851888531610904390000010817591420877357998_" gradientUnits="userSpaceOnUse" x1="466.4889" y1="412.4007" x2="471.7819" y2="412.4007" gradientTransform="matrix(0 -1 -1 0 670.7741 565.3154)">
				<stop  offset="0" style="stop-color:#000B17;stop-opacity:0.5"/>
				<stop  offset="0.9963" style="stop-color:#000000;stop-opacity:0"/>
			</linearGradient>
			
				<polygon style="clip-path:url(#SVGID_00000043440579570066616690000004942906480533250217_);fill:url(#SVGID_00000039851888531610904390000010817591420877357998_);" points="
				183.176,93.534 183.176,98.826 333.571,98.826 333.571,93.534 			"/>
			
				<linearGradient id="SVGID_00000016050989792930778090000016049796179393436341_" gradientUnits="userSpaceOnUse" x1="469.3938" y1="389.6093" x2="474.697" y2="389.6093" gradientTransform="matrix(0 1 1 0 -131.0896 -393.1189)">
				<stop  offset="0" style="stop-color:#000B17;stop-opacity:0.5"/>
				<stop  offset="0.9963" style="stop-color:#000000;stop-opacity:0"/>
			</linearGradient>
			
				<polygon style="clip-path:url(#SVGID_00000043440579570066616690000004942906480533250217_);fill:url(#SVGID_00000016050989792930778090000016049796179393436341_);" points="
				333.864,81.578 333.864,76.275 183.176,76.275 183.176,81.578 			"/>
		</g>
	</g>
	<g>
		<g>
			<g>
				<path style="fill:#FFC45F;" d="M377.877,127.236l-91.682,0.009l-84.609,0.008c-2.743-9.28-2.744-19.154-0.003-28.434
					l84.609-0.008l91.682-0.009L377.877,127.236z"/>
				<path style="fill:#EBEBEB;" d="M373.367,127.239l34.664-0.003l0-0.885c-1.403-2.921-2.324-7.808-2.324-13.338
					c-0.001-5.53,0.919-10.412,2.321-13.333V98.8l-34.664,0.003C370.62,108.084,370.621,117.958,373.367,127.239z"/>
				<path style="fill:#FFDDA3;" d="M408.441,127.233l-34.566,0.003l0-1.468l34.566-0.003c0.406,0,0.734,0.329,0.734,0.734l0,0
					C409.175,126.905,408.846,127.233,408.441,127.233z"/>
				<path style="fill:#FFDDA3;" d="M408.438,100.268l-34.244,0.003l0-1.468l34.244-0.003c0.405,0,0.734,0.329,0.734,0.734l0,0
					C409.172,99.939,408.843,100.268,408.438,100.268z"/>
				<g>
					<defs>
						<path id="SVGID_00000000189025713832893180000016642335745874524585_" d="M373.367,127.239l34.664-0.003l0-0.885
							c-1.403-2.921-2.324-7.808-2.324-13.338c-0.001-5.53,0.919-10.412,2.321-13.333V98.8l-34.664,0.003
							C370.62,108.084,370.621,117.958,373.367,127.239z"/>
					</defs>
					<clipPath id="SVGID_00000038413907498630725940000014523766099849203883_">
						<use xlink:href="#SVGID_00000000189025713832893180000016642335745874524585_"  style="overflow:visible;"/>
					</clipPath>
					<g style="clip-path:url(#SVGID_00000038413907498630725940000014523766099849203883_);">
						
							<line style="fill:none;stroke:#D6D6D6;stroke-width:0.75;stroke-miterlimit:10;" x1="409.485" y1="124.124" x2="373.799" y2="124.127"/>
						
							<line style="fill:none;stroke:#D6D6D6;stroke-width:0.75;stroke-miterlimit:10;" x1="409.461" y1="121.905" x2="373.775" y2="121.908"/>
						
							<line style="fill:none;stroke:#D6D6D6;stroke-width:0.75;stroke-miterlimit:10;" x1="409.437" y1="119.685" x2="373.751" y2="119.689"/>
						
							<line style="fill:none;stroke:#D6D6D6;stroke-width:0.75;stroke-miterlimit:10;" x1="409.414" y1="117.466" x2="373.728" y2="117.469"/>
						
							<line style="fill:none;stroke:#D6D6D6;stroke-width:0.75;stroke-miterlimit:10;" x1="409.39" y1="115.247" x2="373.704" y2="115.25"/>
						
							<line style="fill:none;stroke:#D6D6D6;stroke-width:0.75;stroke-miterlimit:10;" x1="409.366" y1="113.027" x2="373.68" y2="113.031"/>
						
							<line style="fill:none;stroke:#D6D6D6;stroke-width:0.75;stroke-miterlimit:10;" x1="409.342" y1="110.808" x2="373.656" y2="110.812"/>
						
							<line style="fill:none;stroke:#D6D6D6;stroke-width:0.75;stroke-miterlimit:10;" x1="409.318" y1="108.589" x2="373.633" y2="108.592"/>
						
							<line style="fill:none;stroke:#D6D6D6;stroke-width:0.75;stroke-miterlimit:10;" x1="409.295" y1="106.37" x2="373.609" y2="106.373"/>
						
							<line style="fill:none;stroke:#D6D6D6;stroke-width:0.75;stroke-miterlimit:10;" x1="409.271" y1="104.15" x2="373.585" y2="104.154"/>
						
							<line style="fill:none;stroke:#D6D6D6;stroke-width:0.75;stroke-miterlimit:10;" x1="409.247" y1="101.931" x2="373.561" y2="101.934"/>
					</g>
				</g>
				<path style="fill:#CCCCCC;" d="M373.619,99.414l0.668,0c2.055,8.876,2.056,18.326,0.003,27.207l-1.374-1.504l-0.354-13.528
					L373.619,99.414z"/>
				<path style="fill:#FFDDA3;" d="M374.918,98.804l-1.942,0c-2.741,9.28-2.74,19.156,0.003,28.431l1.942,0
					C372.179,117.959,372.178,108.084,374.918,98.804z"/>
			</g>
			<path style="fill:#DB9952;" d="M216.826,127.237h-9.479c-2.744-9.283-2.744-19.153,0-28.436h9.479
				C214.083,108.084,214.083,117.954,216.826,127.237z"/>
			<path style="fill:#DB9952;" d="M230.647,124.215h-9.479c-1.691-7.364-1.691-15.017,0-22.382h9.479
				C228.955,109.198,228.955,116.851,230.647,124.215z"/>
			<g>
				<path style="fill:#DB9952;" d="M348.047,102.834c-1.362,6.693-1.362,13.688,0,20.382H226.57c-1.419-6.684-1.419-13.697,0-20.382
					H348.047 M349.287,101.834h-123.52c-1.691,7.364-1.691,15.017,0,22.382h123.52C347.595,116.851,347.595,109.198,349.287,101.834
					L349.287,101.834z"/>
			</g>
			<g>
				<path style="fill:#DB9952;" d="M237.158,113.191c0-0.111,0-0.222,0-0.332c0.012-3.24,2.635-5.867,5.875-5.867h89.118
					c3.282,0,5.869,2.691,5.865,5.973c0,0.04,0,0.081,0,0.121c0.004,3.282-2.583,5.973-5.865,5.973h-89.118
					C239.793,119.058,237.17,116.431,237.158,113.191z"/>
			</g>
			<path style="fill:#DB9952;" d="M354.026,124.215h-9.479c-1.691-7.364-1.691-15.017,0-22.382h9.479
				C352.335,109.198,352.335,116.851,354.026,124.215z"/>
			<path style="fill:#DB9952;" d="M368.166,127.237h-9.479c-2.744-9.283-2.744-19.153,0-28.436h9.479
				C365.422,108.084,365.422,117.954,368.166,127.237z"/>
		</g>
		<g>
			<defs>
				<path id="SVGID_00000087401451902803045900000010025974122555816874_" d="M408.438,98.799l-34.244,0.003l0,0l-88.001,0.008
					l-84.609,0.008c-2.741,9.28-2.74,19.155,0.003,28.434l84.609-0.008l87.171-0.008c0,0.001,0,0.001,0,0.002l34.664-0.003v-0.885
					c-1.403-2.921-2.323-7.808-2.324-13.338c0-5.187,0.814-9.782,2.072-12.745l0.659,0c0.405,0,0.734-0.329,0.734-0.734
					C409.172,99.128,408.843,98.799,408.438,98.799z"/>
			</defs>
			<clipPath id="SVGID_00000026123862439664069740000017428706487351205269_">
				<use xlink:href="#SVGID_00000087401451902803045900000010025974122555816874_"  style="overflow:visible;"/>
			</clipPath>
			
				<linearGradient id="SVGID_00000056405153213414513690000006789639253442393248_" gradientUnits="userSpaceOnUse" x1="499.2001" y1="366.6498" x2="506.8092" y2="366.6498" gradientTransform="matrix(0 -1 -1 0 670.7741 626.4257)">
				<stop  offset="0" style="stop-color:#000B17;stop-opacity:0.5"/>
				<stop  offset="0.9963" style="stop-color:#000000;stop-opacity:0"/>
			</linearGradient>
			
				<polygon style="clip-path:url(#SVGID_00000026123862439664069740000017428706487351205269_);fill:url(#SVGID_00000056405153213414513690000006789639253442393248_);" points="
				197.436,119.617 197.436,127.226 410.813,127.226 410.813,119.617 			"/>
			
				<linearGradient id="SVGID_00000109748698117958007970000015645237361083945105_" gradientUnits="userSpaceOnUse" x1="492.3716" y1="-937.5365" x2="499.9807" y2="-937.5365" gradientTransform="matrix(0 1 1 0 1241.6608 -393.5754)">
				<stop  offset="0" style="stop-color:#000B17;stop-opacity:0.5"/>
				<stop  offset="0.9963" style="stop-color:#000000;stop-opacity:0"/>
			</linearGradient>
			
				<polygon style="clip-path:url(#SVGID_00000026123862439664069740000017428706487351205269_);fill:url(#SVGID_00000109748698117958007970000015645237361083945105_);" points="
				410.813,106.405 410.813,98.796 197.436,98.796 197.436,106.405 			"/>
		</g>
		<path style="fill:#E3544B;" d="M386.659,108.213L386.659,108.213c2.113,2.718,3.299,6.405,3.299,10.249v0.662l-2.855-2.133
			l-3.013,2.133v-0.662c0-3.844-1.187-7.531-3.299-10.249l0,0H386.659z"/>
	</g>
	<g>
		<g>
			<g>
				<path style="fill:#264360;" d="M227.486,166.461h170.016c3.781-12.796,3.781-26.412,0-39.208H227.486V166.461z"/>
				<path style="fill:#EBEBEB;" d="M233.705,166.464h-86.912v-1.22c1.934-4.028,3.203-10.766,3.203-18.392
					c0-7.626-1.269-14.357-3.203-18.385v-1.213h86.912C237.49,140.051,237.49,153.666,233.705,166.464z"/>
				<path style="fill:#508CC9;" d="M146.227,166.461h86.778v-2.025h-86.778c-0.559,0-1.012,0.453-1.012,1.012l0,0
					C145.215,166.008,145.668,166.461,146.227,166.461z"/>
				<path style="fill:#508CC9;" d="M146.227,129.277h86.334v-2.025h-86.334c-0.559,0-1.012,0.453-1.012,1.012l0,0
					C145.215,128.824,145.668,129.277,146.227,129.277z"/>
				<g>
					<defs>
						<path id="SVGID_00000063631087339071855150000013433464606008332212_" d="M233.705,166.464h-86.912v-1.22
							c1.934-4.028,3.203-10.766,3.203-18.392c0-7.626-1.269-14.357-3.203-18.385v-1.213h86.912
							C237.49,140.051,237.49,153.666,233.705,166.464z"/>
					</defs>
					<clipPath id="SVGID_00000098922138917002883580000010960965228239642047_">
						<use xlink:href="#SVGID_00000063631087339071855150000013433464606008332212_"  style="overflow:visible;"/>
					</clipPath>
					<g style="clip-path:url(#SVGID_00000098922138917002883580000010960965228239642047_);">
						
							<line style="fill:none;stroke:#D6D6D6;stroke-width:0.75;stroke-miterlimit:10;" x1="144.787" y1="162.173" x2="233.109" y2="162.173"/>
						
							<line style="fill:none;stroke:#D6D6D6;stroke-width:0.75;stroke-miterlimit:10;" x1="144.819" y1="159.113" x2="233.141" y2="159.113"/>
						
							<line style="fill:none;stroke:#D6D6D6;stroke-width:0.75;stroke-miterlimit:10;" x1="144.852" y1="156.053" x2="233.174" y2="156.053"/>
						
							<line style="fill:none;stroke:#D6D6D6;stroke-width:0.75;stroke-miterlimit:10;" x1="144.884" y1="152.993" x2="233.206" y2="152.993"/>
						
							<line style="fill:none;stroke:#D6D6D6;stroke-width:0.75;stroke-miterlimit:10;" x1="144.917" y1="149.932" x2="233.238" y2="149.932"/>
						
							<line style="fill:none;stroke:#D6D6D6;stroke-width:0.75;stroke-miterlimit:10;" x1="144.949" y1="146.872" x2="233.271" y2="146.872"/>
						
							<line style="fill:none;stroke:#D6D6D6;stroke-width:0.75;stroke-miterlimit:10;" x1="144.982" y1="143.812" x2="233.303" y2="143.812"/>
						
							<line style="fill:none;stroke:#D6D6D6;stroke-width:0.75;stroke-miterlimit:10;" x1="145.014" y1="140.752" x2="233.336" y2="140.752"/>
						
							<line style="fill:none;stroke:#D6D6D6;stroke-width:0.75;stroke-miterlimit:10;" x1="145.047" y1="137.692" x2="233.368" y2="137.692"/>
						
							<line style="fill:none;stroke:#D6D6D6;stroke-width:0.75;stroke-miterlimit:10;" x1="145.079" y1="134.632" x2="233.401" y2="134.632"/>
						
							<line style="fill:none;stroke:#D6D6D6;stroke-width:0.75;stroke-miterlimit:10;" x1="145.112" y1="131.571" x2="233.433" y2="131.571"/>
					</g>
				</g>
				<path style="fill:#CCCCCC;" d="M233.353,128.096h-0.921c-2.832,12.24-2.832,25.271,0,37.516l1.894-2.074l0.487-18.654
					L233.353,128.096z"/>
				<path style="fill:#508CC9;" d="M231.562,127.255h2.678c3.781,12.796,3.781,26.414,0,39.204h-2.678
					C235.342,153.668,235.342,140.051,231.562,127.255z"/>
			</g>
			<path style="fill:#1C334D;" d="M392.012,166.461h-14.874c3.785-12.8,3.785-26.414,0-39.204h14.874
				C395.797,140.047,395.797,153.662,392.012,166.461z"/>
			<path style="fill:#1C334D;" d="M255.416,166.461h-14.874c3.785-12.8,3.785-26.414,0-39.204h14.874
				C259.202,140.047,259.202,153.662,255.416,166.461z"/>
			<path style="fill:#1C334D;" d="M374.257,166.461h-6.124c3.785-12.8,3.785-26.414,0-39.204h6.124
				C378.042,140.047,378.042,153.662,374.257,166.461z"/>
			<path style="fill:#1C334D;" d="M365.061,166.461h-6.124c3.785-12.8,3.785-26.414,0-39.204h6.124
				C368.846,140.047,368.846,153.662,365.061,166.461z"/>
			<path style="fill:#1C334D;" d="M274.491,166.461h-6.124c3.785-12.8,3.785-26.414,0-39.204h6.124
				C278.276,140.047,278.276,153.662,274.491,166.461z"/>
			<path style="fill:#1C334D;" d="M265.295,166.461h-6.124c3.785-12.8,3.785-26.414,0-39.204h6.124
				C269.08,140.047,269.08,153.662,265.295,166.461z"/>
			
				<line style="fill:none;stroke:#1C334D;stroke-width:3;stroke-miterlimit:10;" x1="273.006" y1="130.759" x2="361.94" y2="163.724"/>
			
				<line style="fill:none;stroke:#1C334D;stroke-width:3;stroke-miterlimit:10;" x1="361.94" y1="130.759" x2="273.006" y2="163.724"/>
			<path style="fill:#1C334D;" d="M282.047,154.883c0.543-5.061,0.569-10.182,0.081-15.249l20.521,7.612L282.047,154.883z"/>
			<path style="fill:#1C334D;" d="M332.315,147.245l23.736-8.804c0.771,5.816,0.736,11.748-0.103,17.564L332.315,147.245z"/>
			<polygon style="fill:#1C334D;" points="283.873,127.258 317.473,137.451 351.073,127.258 			"/>
			<polygon style="fill:#1C334D;" points="351.073,166.464 317.473,156.27 283.873,166.464 			"/>
		</g>
		<g>
			<defs>
				<path id="SVGID_00000174592339476428591590000005373827969795662524_" d="M397.502,127.253H232.561h-5.075h-81.259
					c-0.559,0-1.012,0.453-1.012,1.012c0,0.559,0.453,1.012,1.012,1.012h0.93c1.727,4.087,2.838,10.439,2.838,17.574
					c0,7.137-1.111,13.497-2.84,17.585h-0.929c-0.559,0-1.012,0.453-1.012,1.012s0.453,1.012,1.012,1.012h0.566v0.003h86.912
					c0-0.001,0.001-0.002,0.001-0.003h163.796C401.283,153.665,401.283,140.049,397.502,127.253z"/>
			</defs>
			<clipPath id="SVGID_00000098189166077421922820000004286890429689429635_">
				<use xlink:href="#SVGID_00000174592339476428591590000005373827969795662524_"  style="overflow:visible;"/>
			</clipPath>
			
				<linearGradient id="SVGID_00000058563109371620712630000002774158698966043025_" gradientUnits="userSpaceOnUse" x1="511.5439" y1="398.2183" x2="521.4897" y2="398.2183" gradientTransform="matrix(0 -1 -1 0 670.7741 677.9668)">
				<stop  offset="0" style="stop-color:#000B17;stop-opacity:0.5"/>
				<stop  offset="0.9963" style="stop-color:#000000;stop-opacity:0"/>
			</linearGradient>
			
				<polygon style="clip-path:url(#SVGID_00000098189166077421922820000004286890429689429635_);fill:url(#SVGID_00000058563109371620712630000002774158698966043025_);" points="
				142.201,156.477 142.201,166.423 402.91,166.423 402.91,156.477 			"/>
			
				<linearGradient id="SVGID_00000144300119165364499060000015086591569738369928_" gradientUnits="userSpaceOnUse" x1="498.8916" y1="-886.0356" x2="508.8374" y2="-886.0356" gradientTransform="matrix(0 1 1 0 1158.5916 -371.666)">
				<stop  offset="0" style="stop-color:#000B17;stop-opacity:0.5"/>
				<stop  offset="0.9963" style="stop-color:#000000;stop-opacity:0"/>
			</linearGradient>
			
				<polygon style="clip-path:url(#SVGID_00000098189166077421922820000004286890429689429635_);fill:url(#SVGID_00000144300119165364499060000015086591569738369928_);" points="
				402.91,137.171 402.91,127.226 142.201,127.226 142.201,137.171 			"/>
		</g>
	</g>
	<g>
		<g>
			<g>
				<path style="fill:#FF8787;" d="M467.953,277.017H276.071V232.77h191.882C472.213,247.21,472.213,262.578,467.953,277.017z"/>
				<path style="fill:#EBEBEB;" d="M283.091,277.024h-98.088v-1.377c2.183-4.546,3.615-12.15,3.615-20.757
					s-1.432-16.203-3.615-20.749v-1.369h98.088C287.363,247.215,287.363,262.581,283.091,277.024z"/>
				<path style="fill:#FFB5B5;" d="M184.365,277.021h97.937v-2.285h-97.937c-0.631,0-1.143,0.512-1.143,1.143l0,0
					C183.223,276.509,183.734,277.021,184.365,277.021z"/>
				<path style="fill:#FFB5B5;" d="M184.365,235.056H281.8v-2.285h-97.435c-0.631,0-1.143,0.512-1.143,1.143l0,0
					C183.223,234.544,183.734,235.056,184.365,235.056z"/>
				<g>
					<defs>
						<path id="SVGID_00000171692999922822941410000016783511329279139750_" d="M283.091,277.024h-98.088v-1.377
							c2.183-4.546,3.615-12.15,3.615-20.757s-1.432-16.203-3.615-20.749v-1.369h98.088
							C287.363,247.215,287.363,262.581,283.091,277.024z"/>
					</defs>
					<clipPath id="SVGID_00000170268354450041818680000014946972128900851842_">
						<use xlink:href="#SVGID_00000171692999922822941410000016783511329279139750_"  style="overflow:visible;"/>
					</clipPath>
					<g style="clip-path:url(#SVGID_00000170268354450041818680000014946972128900851842_);">
						
							<line style="fill:none;stroke:#D6D6D6;stroke-width:0.75;stroke-miterlimit:10;" x1="182.74" y1="272.182" x2="282.418" y2="272.182"/>
						
							<line style="fill:none;stroke:#D6D6D6;stroke-width:0.75;stroke-miterlimit:10;" x1="182.776" y1="268.728" x2="282.455" y2="268.728"/>
						
							<line style="fill:none;stroke:#D6D6D6;stroke-width:0.75;stroke-miterlimit:10;" x1="182.813" y1="265.274" x2="282.492" y2="265.274"/>
						
							<line style="fill:none;stroke:#D6D6D6;stroke-width:0.75;stroke-miterlimit:10;" x1="182.85" y1="261.821" x2="282.528" y2="261.821"/>
						
							<line style="fill:none;stroke:#D6D6D6;stroke-width:0.75;stroke-miterlimit:10;" x1="182.886" y1="258.367" x2="282.565" y2="258.367"/>
						
							<line style="fill:none;stroke:#D6D6D6;stroke-width:0.75;stroke-miterlimit:10;" x1="182.923" y1="254.913" x2="282.602" y2="254.913"/>
						
							<line style="fill:none;stroke:#D6D6D6;stroke-width:0.75;stroke-miterlimit:10;" x1="182.96" y1="251.46" x2="282.638" y2="251.46"/>
						
							<line style="fill:none;stroke:#D6D6D6;stroke-width:0.75;stroke-miterlimit:10;" x1="182.996" y1="248.006" x2="282.675" y2="248.006"/>
						
							<line style="fill:none;stroke:#D6D6D6;stroke-width:0.75;stroke-miterlimit:10;" x1="183.033" y1="244.552" x2="282.712" y2="244.552"/>
						
							<line style="fill:none;stroke:#D6D6D6;stroke-width:0.75;stroke-miterlimit:10;" x1="183.07" y1="241.098" x2="282.748" y2="241.098"/>
						
							<line style="fill:none;stroke:#D6D6D6;stroke-width:0.75;stroke-miterlimit:10;" x1="183.106" y1="237.645" x2="282.785" y2="237.645"/>
					</g>
				</g>
				<path style="fill:#CCCCCC;" d="M282.694,233.723h-1.039c-3.196,13.813-3.196,28.52,0,42.34l2.138-2.341l0.549-21.052
					L282.694,233.723z"/>
				<path style="fill:#FFB5B5;" d="M280.672,232.773h3.022c4.267,14.442,4.267,29.81,0,44.245h-3.022
					C284.939,262.583,284.939,247.215,280.672,232.773z"/>
			</g>
			<path style="fill:#E67070;" d="M461.15,277.028h-14.192c4.28-14.45,4.28-29.818,0-44.258h14.192
				C465.42,247.21,465.42,262.578,461.15,277.028z"/>
			<path style="fill:#E67070;" d="M306.345,277.028h-14.192c4.28-14.45,4.28-29.818,0-44.258h14.192
				C310.616,247.21,310.616,262.578,306.345,277.028z"/>
			<path style="fill:#E67070;" d="M337.614,277.028h-3.647c4.28-14.45,4.28-29.818,0-44.258h3.647
				C341.884,247.21,341.884,262.578,337.614,277.028z"/>
			<path style="fill:#E67070;" d="M344.464,277.028h-3.647c4.28-14.45,4.28-29.818,0-44.258h3.647
				C348.734,247.21,348.734,262.578,344.464,277.028z"/>
			<path style="fill:#E67070;" d="M414.326,277.028h-3.647c4.28-14.45,4.28-29.818,0-44.258h3.647
				C418.596,247.21,418.596,262.578,414.326,277.028z"/>
			<path style="fill:#E67070;" d="M420.275,277.028h-3.647c4.28-14.45,4.28-29.818,0-44.258h3.647
				C424.545,247.21,424.545,262.578,420.275,277.028z"/>
			<g>
				
					<rect x="316.308" y="248.726" transform="matrix(0.7071 0.7071 -0.7071 0.7071 274.6933 -153.3703)" style="fill:#E67070;" width="12.345" height="12.345"/>
				
					<rect x="318.732" y="239.058" transform="matrix(0.7071 0.7071 -0.7071 0.7071 266.1378 -156.9101)" style="fill:#E67070;" width="7.487" height="7.487"/>
				
					<rect x="318.732" y="263.243" transform="matrix(0.7071 0.7071 -0.7071 0.7071 283.2392 -149.8265)" style="fill:#E67070;" width="7.487" height="7.487"/>
			</g>
			<g>
				
					<rect x="430.158" y="248.726" transform="matrix(0.7071 0.7071 -0.7071 0.7071 308.0362 -233.8731)" style="fill:#E67070;" width="12.345" height="12.345"/>
				
					<rect x="432.582" y="239.058" transform="matrix(0.7071 0.7071 -0.7071 0.7071 299.488 -237.415)" style="fill:#E67070;" width="7.487" height="7.487"/>
				
					<rect x="432.582" y="263.243" transform="matrix(0.7071 0.7071 -0.7071 0.7071 316.5896 -230.3312)" style="fill:#E67070;" width="7.487" height="7.487"/>
			</g>
			<g>
				
					<rect x="371.318" y="245.465" transform="matrix(-0.7071 0.7071 -0.7071 -0.7071 830.2311 165.91)" style="fill:#E67070;" width="18.873" height="18.873"/>
				
					<rect x="393.525" y="249.171" transform="matrix(-0.7071 0.7071 -0.7071 -0.7071 861.7967 152.8205)" style="fill:#E67070;" width="11.446" height="11.446"/>
				
					<rect x="356.552" y="249.171" transform="matrix(-0.7071 0.7071 -0.7071 -0.7071 798.6802 178.9642)" style="fill:#E67070;" width="11.446" height="11.446"/>
			</g>
			<polygon style="fill:#E67070;" points="406.028,232.77 392.681,246.117 380.831,234.255 368.969,246.117 355.623,232.77 			"/>
			<polygon style="fill:#E67070;" points="355.623,277.022 368.969,263.676 380.82,275.537 392.681,263.676 406.028,277.022 			"/>
		</g>
		<g>
			<defs>
				<path id="SVGID_00000069380250187174781930000001532525848884831137_" d="M467.953,232.77H276.071v0.001h-91.706
					c-0.631,0-1.143,0.512-1.143,1.142c0,0.631,0.512,1.143,1.143,1.143h1.05c1.949,4.613,3.203,11.781,3.203,19.834
					c0,8.055-1.255,15.232-3.205,19.846h-1.048c-0.631,0-1.143,0.512-1.143,1.143c0,0.631,0.512,1.142,1.143,1.142h0.638v0.003
					h98.088c0.001-0.002,0.001-0.004,0.002-0.006h184.86C472.213,262.578,472.213,247.21,467.953,232.77z"/>
			</defs>
			<clipPath id="SVGID_00000011718172782068603330000014368983418509627310_">
				<use xlink:href="#SVGID_00000069380250187174781930000001532525848884831137_"  style="overflow:visible;"/>
			</clipPath>
			
				<linearGradient id="SVGID_00000044164090563162087160000014379995695065792959_" gradientUnits="userSpaceOnUse" x1="400.9494" y1="345.787" x2="410.8952" y2="345.787" gradientTransform="matrix(0 -1 -1 0 670.7741 677.9668)">
				<stop  offset="0" style="stop-color:#000B17;stop-opacity:0.5"/>
				<stop  offset="0.9963" style="stop-color:#000000;stop-opacity:0"/>
			</linearGradient>
			
				<polygon style="clip-path:url(#SVGID_00000011718172782068603330000014368983418509627310_);fill:url(#SVGID_00000044164090563162087160000014379995695065792959_);" points="
				178.459,267.072 178.459,277.017 471.515,277.017 471.515,267.072 			"/>
			
				<linearGradient id="SVGID_00000119797517499052675280000015744779462610240431_" gradientUnits="userSpaceOnUse" x1="404.3267" y1="-947.0523" x2="414.2725" y2="-947.0523" gradientTransform="matrix(0 1 1 0 1272.0394 -171.5585)">
				<stop  offset="0" style="stop-color:#000B17;stop-opacity:0.5"/>
				<stop  offset="0.9963" style="stop-color:#000000;stop-opacity:0"/>
			</linearGradient>
			
				<polygon style="clip-path:url(#SVGID_00000011718172782068603330000014368983418509627310_);fill:url(#SVGID_00000119797517499052675280000015744779462610240431_);" points="
				471.515,242.714 471.515,232.768 178.459,232.768 178.459,242.714 			"/>
		</g>
		<path style="fill:#E3544B;" d="M251.482,254.572L251.482,254.572c-4.539,4.539-7.09,10.696-7.09,17.116v1.105l6.135-3.562
			l6.473,3.562v-1.105c0-6.42,2.55-12.577,7.09-17.116l0,0H251.482z"/>
	</g>
	<g>
		<g>
			<g>
				<path style="fill:#73B2BA;" d="M345.075,325.6H134.427c-4.685-15.854-4.685-32.724,0-48.578h210.648V325.6z"/>
				<path style="fill:#EBEBEB;" d="M337.37,325.603h107.683v-1.512c-2.396-4.99-3.968-13.339-3.968-22.787
					c0-9.448,1.572-17.788,3.968-22.779v-1.503H337.37C332.68,292.878,332.68,309.748,337.37,325.603z"/>
				<path style="fill:#86CFD9;" d="M445.754,325.6H338.236v-2.509h107.518c0.693,0,1.254,0.561,1.254,1.254l0,0
					C447.008,325.038,446.447,325.6,445.754,325.6z"/>
				<path style="fill:#86CFD9;" d="M445.754,279.53H338.788v-2.508h106.966c0.693,0,1.254,0.561,1.254,1.254l0,0
					C447.008,278.969,446.447,279.53,445.754,279.53z"/>
				<g>
					<defs>
						<path id="SVGID_00000044868112372559396040000017292852538365239175_" d="M337.37,325.603h107.683v-1.512
							c-2.396-4.99-3.968-13.339-3.968-22.787c0-9.448,1.572-17.788,3.968-22.779v-1.503H337.37
							C332.68,292.878,332.68,309.748,337.37,325.603z"/>
					</defs>
					<clipPath id="SVGID_00000160167415080079830520000006284013858628743611_">
						<use xlink:href="#SVGID_00000044868112372559396040000017292852538365239175_"  style="overflow:visible;"/>
					</clipPath>
					<g style="clip-path:url(#SVGID_00000160167415080079830520000006284013858628743611_);">
						
							<line style="fill:none;stroke:#D6D6D6;stroke-width:0.75;stroke-miterlimit:10;" x1="447.538" y1="320.288" x2="338.109" y2="320.288"/>
						
							<line style="fill:none;stroke:#D6D6D6;stroke-width:0.75;stroke-miterlimit:10;" x1="447.498" y1="316.496" x2="338.068" y2="316.496"/>
						
							<line style="fill:none;stroke:#D6D6D6;stroke-width:0.75;stroke-miterlimit:10;" x1="447.458" y1="312.705" x2="338.028" y2="312.705"/>
						
							<line style="fill:none;stroke:#D6D6D6;stroke-width:0.75;stroke-miterlimit:10;" x1="447.418" y1="308.913" x2="337.988" y2="308.913"/>
						
							<line style="fill:none;stroke:#D6D6D6;stroke-width:0.75;stroke-miterlimit:10;" x1="447.378" y1="305.121" x2="337.948" y2="305.121"/>
						
							<line style="fill:none;stroke:#D6D6D6;stroke-width:0.75;stroke-miterlimit:10;" x1="447.337" y1="301.33" x2="337.907" y2="301.33"/>
						
							<line style="fill:none;stroke:#D6D6D6;stroke-width:0.75;stroke-miterlimit:10;" x1="447.297" y1="297.538" x2="337.867" y2="297.538"/>
						
							<line style="fill:none;stroke:#D6D6D6;stroke-width:0.75;stroke-miterlimit:10;" x1="447.257" y1="293.747" x2="337.827" y2="293.747"/>
						
							<line style="fill:none;stroke:#D6D6D6;stroke-width:0.75;stroke-miterlimit:10;" x1="447.216" y1="289.955" x2="337.787" y2="289.955"/>
						
							<line style="fill:none;stroke:#D6D6D6;stroke-width:0.75;stroke-miterlimit:10;" x1="447.176" y1="286.164" x2="337.746" y2="286.164"/>
						
							<line style="fill:none;stroke:#D6D6D6;stroke-width:0.75;stroke-miterlimit:10;" x1="447.136" y1="282.372" x2="337.706" y2="282.372"/>
					</g>
				</g>
				<path style="fill:#CCCCCC;" d="M337.806,278.067h1.141c3.509,15.165,3.509,31.31,0,46.482l-2.347-2.57l-0.603-23.112
					L337.806,278.067z"/>
				<path style="fill:#86CFD9;" d="M340.025,277.024h-3.317c-4.684,15.855-4.684,32.726,0,48.573h3.317
					C335.341,309.75,335.341,292.878,340.025,277.024z"/>
			</g>
			<path style="fill:#52959E;" d="M179.499,325.607h-5.905c-4.693-15.863-4.693-32.726,0-48.589h5.905
				C174.806,292.88,174.806,309.744,179.499,325.607z"/>
			<path style="fill:#52959E;" d="M140.338,325.607h-5.905c-4.693-15.863-4.693-32.726,0-48.589h5.905
				C135.645,292.88,135.645,309.744,140.338,325.607z"/>
			<path style="fill:#52959E;" d="M170.075,325.607h-5.905c-4.693-15.863-4.693-32.726,0-48.589h5.905
				C165.382,292.88,165.382,309.744,170.075,325.607z"/>
			<path style="fill:#52959E;" d="M160.65,325.607h-16.792c-4.693-15.863-4.693-32.726,0-48.589h16.792
				C155.957,292.88,155.957,309.744,160.65,325.607z"/>
			<path style="fill:#52959E;" d="M306.874,325.607h-5.905c-4.693-15.863-4.693-32.726,0-48.589h5.905
				C302.18,292.88,302.18,309.744,306.874,325.607z"/>
			<path style="fill:#52959E;" d="M336.61,325.607h-5.905c-4.693-15.863-4.693-32.726,0-48.589h5.905
				C331.917,292.88,331.917,309.744,336.61,325.607z"/>
			<path style="fill:#52959E;" d="M327.185,325.607h-16.792c-4.693-15.863-4.693-32.726,0-48.589h16.792
				C322.492,292.88,322.492,309.744,327.185,325.607z"/>
			<path style="fill:#52959E;" d="M297.735,325.607h-5.905c-4.693-15.863-4.693-32.726,0-48.589h5.905
				C293.042,292.88,293.042,309.744,297.735,325.607z"/>
			<polygon style="fill:none;stroke:#52959E;stroke-miterlimit:10;" points="194.054,317.918 184.467,301.313 194.054,284.708 
				266.707,284.708 276.294,301.313 266.707,317.918 			"/>
			<polygon style="fill:#52959E;" points="264.325,288.833 196.436,288.833 189.231,301.313 196.436,313.793 264.325,313.793 
				271.53,301.313 			"/>
			<polygon style="fill:#52959E;" points="268.052,277.017 282.079,301.313 268.052,325.6 293.519,325.607 293.519,277.028 			"/>
			<polygon style="fill:#52959E;" points="192.675,277.017 178.648,301.313 192.675,325.6 174.787,325.607 174.787,277.028 			"/>
			<rect x="189.231" y="277.017" style="fill:#52959E;" width="82.299" height="3.455"/>
			<rect x="189.231" y="322.154" style="fill:#52959E;" width="82.299" height="3.455"/>
		</g>
		<g>
			<defs>
				<path id="SVGID_00000105404940970148347240000007803521285166881166_" d="M445.754,323.091h-1.151
					c-2.141-5.065-3.518-12.944-3.518-21.787c0-8.841,1.376-16.71,3.517-21.774h1.152c0.693,0,1.254-0.562,1.254-1.254
					c0-0.693-0.562-1.254-1.254-1.254H345.075h-6.288H134.427c-4.685,15.854-4.685,32.724,0,48.578h202.942
					c0,0.001,0.001,0.002,0.001,0.003h107.683V325.6h0.701c0.693,0,1.254-0.562,1.254-1.254
					C447.008,323.653,446.447,323.091,445.754,323.091z"/>
			</defs>
			<clipPath id="SVGID_00000018925616073862492040000000063712565192701627_">
				<use xlink:href="#SVGID_00000105404940970148347240000007803521285166881166_"  style="overflow:visible;"/>
			</clipPath>
			
				<linearGradient id="SVGID_00000154399354069949565720000017418256323055134646_" gradientUnits="userSpaceOnUse" x1="426.4994" y1="381.4016" x2="436.4451" y2="381.4016" gradientTransform="matrix(0 -1 -1 0 670.7741 752.0906)">
				<stop  offset="0" style="stop-color:#000B17;stop-opacity:0.5"/>
				<stop  offset="0.9963" style="stop-color:#000000;stop-opacity:0"/>
			</linearGradient>
			
				<polygon style="clip-path:url(#SVGID_00000018925616073862492040000000063712565192701627_);fill:url(#SVGID_00000154399354069949565720000017418256323055134646_);" points="
				129.693,315.646 129.693,325.591 449.052,325.591 449.052,315.646 			"/>
			
				<linearGradient id="SVGID_00000135660769002090165550000006209078266079844261_" gradientUnits="userSpaceOnUse" x1="429.0203" y1="-901.9557" x2="438.9661" y2="-901.9557" gradientTransform="matrix(0 1 1 0 1191.3282 -151.9988)">
				<stop  offset="0" style="stop-color:#000B17;stop-opacity:0.5"/>
				<stop  offset="0.9963" style="stop-color:#000000;stop-opacity:0"/>
			</linearGradient>
			
				<polygon style="clip-path:url(#SVGID_00000018925616073862492040000000063712565192701627_);fill:url(#SVGID_00000135660769002090165550000006209078266079844261_);" points="
				449.052,286.967 449.052,277.022 129.693,277.022 129.693,286.967 			"/>
		</g>
	</g>
	<g>
		<g>
			<g>
				<path style="fill:#FFC45F;" d="M158.538,192.245h8.856v40.523h-8.856c-0.856,0-1.62-0.568-1.846-1.394
					c-3.379-12.351-3.379-25.383,0-37.734C156.918,192.814,157.681,192.245,158.538,192.245z"/>
				<path style="fill:#EBEBEB;" d="M160.053,232.771h219.973v-1.261c-1.999-4.163-3.31-11.127-3.31-19.008
					c0-7.882,1.311-14.839,3.31-19.001v-1.254H160.053C156.141,205.473,156.141,219.545,160.053,232.771z"/>
				<path style="fill:#FFDDA3;" d="M380.61,232.768H160.775v-2.093H380.61c0.578,0,1.046,0.468,1.046,1.046l0,0
					C381.657,232.3,381.188,232.768,380.61,232.768z"/>
				<path style="fill:#FFDDA3;" d="M380.61,194.338H161.235v-2.092H380.61c0.578,0,1.046,0.468,1.046,1.046l0,0
					C381.657,193.87,381.188,194.338,380.61,194.338z"/>
				<g>
					<defs>
						<path id="SVGID_00000045600988111045493190000011023356427148243111_" d="M160.053,232.771h219.973v-1.261
							c-1.999-4.163-3.31-11.127-3.31-19.008c0-7.882,1.311-14.839,3.31-19.001v-1.254H160.053
							C156.141,205.473,156.141,219.545,160.053,232.771z"/>
					</defs>
					<clipPath id="SVGID_00000125573907941066851370000009162959398658551942_">
						<use xlink:href="#SVGID_00000045600988111045493190000011023356427148243111_"  style="overflow:visible;"/>
					</clipPath>
					<g style="clip-path:url(#SVGID_00000125573907941066851370000009162959398658551942_);">
						
							<line style="fill:none;stroke:#D6D6D6;stroke-width:0.75;stroke-miterlimit:10;" x1="382.099" y1="228.337" x2="160.669" y2="228.337"/>
						
							<line style="fill:none;stroke:#D6D6D6;stroke-width:0.75;stroke-miterlimit:10;" x1="382.065" y1="225.174" x2="160.635" y2="225.174"/>
						
							<line style="fill:none;stroke:#D6D6D6;stroke-width:0.75;stroke-miterlimit:10;" x1="382.032" y1="222.011" x2="160.602" y2="222.011"/>
						
							<line style="fill:none;stroke:#D6D6D6;stroke-width:0.75;stroke-miterlimit:10;" x1="381.998" y1="218.848" x2="160.568" y2="218.848"/>
						
							<line style="fill:none;stroke:#D6D6D6;stroke-width:0.75;stroke-miterlimit:10;" x1="381.965" y1="215.686" x2="160.535" y2="215.686"/>
						
							<line style="fill:none;stroke:#D6D6D6;stroke-width:0.75;stroke-miterlimit:10;" x1="381.931" y1="212.523" x2="160.501" y2="212.523"/>
						
							<line style="fill:none;stroke:#D6D6D6;stroke-width:0.75;stroke-miterlimit:10;" x1="381.898" y1="209.36" x2="160.467" y2="209.36"/>
						
							<line style="fill:none;stroke:#D6D6D6;stroke-width:0.75;stroke-miterlimit:10;" x1="381.864" y1="206.197" x2="160.434" y2="206.197"/>
						
							<line style="fill:none;stroke:#D6D6D6;stroke-width:0.75;stroke-miterlimit:10;" x1="381.83" y1="203.034" x2="160.4" y2="203.034"/>
						
							<line style="fill:none;stroke:#D6D6D6;stroke-width:0.75;stroke-miterlimit:10;" x1="381.797" y1="199.872" x2="160.367" y2="199.872"/>
						
							<line style="fill:none;stroke:#D6D6D6;stroke-width:0.75;stroke-miterlimit:10;" x1="381.763" y1="196.709" x2="160.333" y2="196.709"/>
					</g>
				</g>
				<path style="fill:#CCCCCC;" d="M160.416,193.117h0.952c2.927,12.65,2.927,26.118,0,38.774l-1.958-2.144l-0.503-19.279
					L160.416,193.117z"/>
				<path style="fill:#FFDDA3;" d="M162.268,192.247H159.5c-3.907,13.225-3.907,27.299,0,40.518h2.767
					C158.36,219.546,158.36,205.473,162.268,192.247z"/>
			</g>
		</g>
		<g>
			<defs>
				<path id="SVGID_00000163065177005610201580000005168777084514476672_" d="M380.61,230.676h-0.96
					c-1.786-4.225-2.935-10.798-2.935-18.174c0-7.375,1.148-13.939,2.934-18.163h0.961c0.578,0,1.046-0.468,1.046-1.046
					s-0.468-1.046-1.046-1.046H167.393h-6.158h-2.697c-0.856,0-1.62,0.568-1.846,1.394c-3.379,12.351-3.379,25.383,0,37.734
					c0.226,0.826,0.989,1.394,1.846,1.394h1.514c0,0.001,0,0.002,0.001,0.003h219.973v-0.003h0.585c0.578,0,1.046-0.469,1.046-1.046
					C381.657,231.144,381.188,230.676,380.61,230.676z"/>
			</defs>
			<clipPath id="SVGID_00000018208048518951337410000013979849897610310024_">
				<use xlink:href="#SVGID_00000163065177005610201580000005168777084514476672_"  style="overflow:visible;"/>
			</clipPath>
			
				<linearGradient id="SVGID_00000008828753039563267230000001738501057254990258_" gradientUnits="userSpaceOnUse" x1="445.195" y1="401.4865" x2="455.1407" y2="401.4865" gradientTransform="matrix(0 -1 -1 0 670.7741 677.9668)">
				<stop  offset="0" style="stop-color:#000B17;stop-opacity:0.5"/>
				<stop  offset="0.9963" style="stop-color:#000000;stop-opacity:0"/>
			</linearGradient>
			
				<polygon style="clip-path:url(#SVGID_00000018208048518951337410000013979849897610310024_);fill:url(#SVGID_00000008828753039563267230000001738501057254990258_);" points="
				152.503,222.826 152.503,232.772 386.072,232.772 386.072,222.826 			"/>
			
				<linearGradient id="SVGID_00000109742059233273766560000013738659433283738811_" gradientUnits="userSpaceOnUse" x1="440.4956" y1="-885.9916" x2="450.4414" y2="-885.9916" gradientTransform="matrix(0 1 1 0 1155.2793 -248.2485)">
				<stop  offset="0" style="stop-color:#000B17;stop-opacity:0.5"/>
				<stop  offset="0.9963" style="stop-color:#000000;stop-opacity:0"/>
			</linearGradient>
			
				<polygon style="clip-path:url(#SVGID_00000018208048518951337410000013979849897610310024_);fill:url(#SVGID_00000109742059233273766560000013738659433283738811_);" points="
				386.072,202.193 386.072,192.247 152.503,192.247 152.503,202.193 			"/>
		</g>
	</g>
	<g>
		<g>
			<g>
				<path style="fill:#FFC45F;" d="M209.166,399.929l124.353,0.012l114.759,0.011c3.72-12.586,3.722-25.98,0.004-38.567
					l-114.759-0.011l-124.353-0.012L209.166,399.929z"/>
				<path style="fill:#EBEBEB;" d="M215.283,399.933l-47.016-0.004l0-1.2c1.903-3.962,3.151-10.59,3.152-18.091
					c0.001-7.501-1.247-14.122-3.149-18.085l0-1.193l47.016,0.004C219.009,373.952,219.008,387.345,215.283,399.933z"/>
				<path style="fill:#FFDDA3;" d="M167.711,399.926l46.884,0.004l0-1.992l-46.884-0.004c-0.55,0-0.996,0.446-0.996,0.996l0,0
					C166.715,399.48,167.161,399.926,167.711,399.926z"/>
				<path style="fill:#FFDDA3;" d="M167.715,363.35l46.447,0.004l0-1.992l-46.447-0.004c-0.55,0-0.996,0.446-0.996,0.996l0,0
					C166.719,362.904,167.165,363.35,167.715,363.35z"/>
				<g>
					<defs>
						<path id="SVGID_00000129885981535543061890000001573060864979730105_" d="M215.283,399.933l-47.016-0.004l0-1.2
							c1.903-3.962,3.151-10.59,3.152-18.091c0.001-7.501-1.247-14.122-3.149-18.085l0-1.193l47.016,0.004
							C219.009,373.952,219.008,387.345,215.283,399.933z"/>
					</defs>
					<clipPath id="SVGID_00000161616911162917727350000017248216237431539627_">
						<use xlink:href="#SVGID_00000129885981535543061890000001573060864979730105_"  style="overflow:visible;"/>
					</clipPath>
					<g style="clip-path:url(#SVGID_00000161616911162917727350000017248216237431539627_);">
						
							<line style="fill:none;stroke:#D6D6D6;stroke-width:0.75;stroke-miterlimit:10;" x1="166.295" y1="395.708" x2="214.697" y2="395.712"/>
						
							<line style="fill:none;stroke:#D6D6D6;stroke-width:0.75;stroke-miterlimit:10;" x1="166.327" y1="392.698" x2="214.73" y2="392.702"/>
						
							<line style="fill:none;stroke:#D6D6D6;stroke-width:0.75;stroke-miterlimit:10;" x1="166.359" y1="389.688" x2="214.762" y2="389.692"/>
						
							<line style="fill:none;stroke:#D6D6D6;stroke-width:0.75;stroke-miterlimit:10;" x1="166.391" y1="386.678" x2="214.794" y2="386.682"/>
						
							<line style="fill:none;stroke:#D6D6D6;stroke-width:0.75;stroke-miterlimit:10;" x1="166.424" y1="383.667" x2="214.826" y2="383.672"/>
						
							<line style="fill:none;stroke:#D6D6D6;stroke-width:0.75;stroke-miterlimit:10;" x1="166.456" y1="380.657" x2="214.859" y2="380.662"/>
						
							<line style="fill:none;stroke:#D6D6D6;stroke-width:0.75;stroke-miterlimit:10;" x1="166.488" y1="377.647" x2="214.891" y2="377.652"/>
						
							<line style="fill:none;stroke:#D6D6D6;stroke-width:0.75;stroke-miterlimit:10;" x1="166.52" y1="374.637" x2="214.923" y2="374.642"/>
						
							<line style="fill:none;stroke:#D6D6D6;stroke-width:0.75;stroke-miterlimit:10;" x1="166.553" y1="371.627" x2="214.955" y2="371.631"/>
						
							<line style="fill:none;stroke:#D6D6D6;stroke-width:0.75;stroke-miterlimit:10;" x1="166.585" y1="368.617" x2="214.987" y2="368.621"/>
						
							<line style="fill:none;stroke:#D6D6D6;stroke-width:0.75;stroke-miterlimit:10;" x1="166.617" y1="365.607" x2="215.02" y2="365.611"/>
					</g>
				</g>
				<path style="fill:#CCCCCC;" d="M214.941,362.193l-0.906,0c-2.787,12.039-2.788,24.857-0.004,36.903l1.863-2.04l0.481-18.349
					L214.941,362.193z"/>
				<path style="fill:#FFDDA3;" d="M213.179,361.365l2.634,0c3.717,12.587,3.716,25.982-0.004,38.563l-2.634,0
					C216.895,387.347,216.896,373.952,213.179,361.365z"/>
			</g>
			<path style="fill:#DB9952;" d="M442.252,399.93H428.41c3.723-12.583,3.734-25.981,0.01-38.564h13.841
				C445.985,373.949,445.985,387.346,442.252,399.93z"/>
			<path style="fill:#DB9952;" d="M359.062,399.93h-5.52c3.723-12.583,3.734-25.981,0.01-38.564h5.52
				C362.796,373.949,362.796,387.346,359.062,399.93z"/>
			<path style="fill:#DB9952;" d="M314.228,399.93h-5.52c3.723-12.583,3.734-25.981,0.01-38.564h5.52
				C317.961,373.949,317.961,387.346,314.228,399.93z"/>
			<path style="fill:#DB9952;" d="M237.023,399.93h-13.841c3.723-12.583,3.734-25.981,0.01-38.564h13.841
				C240.757,373.949,240.757,387.346,237.023,399.93z"/>
			<path style="fill:#DB9952;" d="M333.534,392.213l-9.951-7.25c-2.92-2.128-2.92-6.484,0-8.611l9.951-7.25
				c1.869-1.362,4.404-1.362,6.274,0l9.951,7.25c2.92,2.128,2.92,6.484,0,8.611l-9.951,7.25
				C337.938,393.575,335.403,393.575,333.534,392.213z"/>
			<path style="fill:#FFC45F;" d="M336.671,389.109c-0.178,0-0.445-0.04-0.706-0.231l-9.953-7.251
				c-0.43-0.313-0.495-0.742-0.495-0.97c0-0.229,0.065-0.658,0.494-0.971l9.952-7.25c0.261-0.19,0.529-0.231,0.707-0.231
				c0.178,0,0.446,0.04,0.707,0.231l9.951,7.25c0.43,0.312,0.493,0.742,0.493,0.971c0,0.228-0.063,0.658-0.493,0.97l-9.951,7.25
				C337.116,389.069,336.849,389.109,336.671,389.109z"/>
			<g>
				<path style="fill:#DB9952;" d="M245.697,378.058l6.007-8.245c1.763-2.419,5.371-2.419,7.134,0l6.007,8.245
					c1.128,1.549,1.128,3.649,0,5.198l-6.007,8.244c-1.763,2.419-5.371,2.419-7.134,0l-6.007-8.244
					C244.568,381.707,244.568,379.607,245.697,378.058z"/>
				<path style="fill:#DB9952;" d="M273.39,378.913l4.031-5.533c1.183-1.624,3.605-1.624,4.788,0l4.031,5.533
					c0.757,1.04,0.757,2.449,0,3.488l-4.031,5.533c-1.183,1.624-3.605,1.624-4.788,0l-4.031-5.533
					C272.633,381.362,272.633,379.953,273.39,378.913z"/>
				<path style="fill:#DB9952;" d="M294.955,379.482l2.717-3.729c0.797-1.094,2.43-1.094,3.227,0l2.717,3.729
					c0.51,0.701,0.51,1.65,0,2.351l-2.717,3.729c-0.797,1.094-2.429,1.094-3.227,0l-2.717-3.729
					C294.445,381.132,294.445,380.182,294.955,379.482z"/>
			</g>
			<g>
				<path style="fill:#DB9952;" d="M425.819,378.058l-6.007-8.245c-1.763-2.419-5.372-2.419-7.134,0l-6.007,8.245
					c-1.128,1.549-1.128,3.649,0,5.198l6.007,8.244c1.763,2.419,5.371,2.419,7.134,0l6.007-8.244
					C426.948,381.707,426.948,379.607,425.819,378.058z"/>
				<path style="fill:#DB9952;" d="M398.126,378.913l-4.031-5.533c-1.183-1.624-3.605-1.624-4.788,0l-4.031,5.533
					c-0.757,1.04-0.757,2.449,0,3.488l4.031,5.533c1.183,1.624,3.605,1.624,4.788,0l4.031-5.533
					C398.883,381.362,398.883,379.953,398.126,378.913z"/>
				<path style="fill:#DB9952;" d="M376.561,379.482l-2.717-3.729c-0.797-1.094-2.43-1.094-3.227,0l-2.717,3.729
					c-0.51,0.701-0.51,1.65,0,2.351l2.717,3.729c0.797,1.094,2.43,1.094,3.227,0l2.717-3.729
					C377.072,381.132,377.072,380.182,376.561,379.482z"/>
			</g>
		</g>
		<g>
			<defs>
				<path id="SVGID_00000036228601576574382120000013406765629188275865_" d="M448.282,361.385l-6.015-0.001
					c-0.002-0.006-0.003-0.013-0.005-0.019h-13.841c0.002,0.006,0.003,0.012,0.005,0.018l-69.35-0.007
					c-0.001-0.004-0.002-0.007-0.003-0.011h-5.52c0.001,0.004,0.002,0.007,0.003,0.011l-20.033-0.002l-19.283-0.002
					c-0.001-0.002-0.001-0.005-0.002-0.007h-5.52c0.001,0.002,0.001,0.004,0.002,0.006l-94.558-0.009l-46.447-0.004
					c-0.55,0-0.996,0.446-0.996,0.996c0,0.55,0.446,0.996,0.996,0.996h0.915c1.699,4.02,2.791,10.268,2.79,17.287
					c-0.001,7.021-1.095,13.276-2.795,17.297h-0.913c-0.55,0-0.996,0.446-0.996,0.996c0,0.55,0.446,0.996,0.996,0.996h0.557v0.003
					l47.016,0.004c0-0.001,0.001-0.002,0.001-0.003l118.235,0.011l114.759,0.011C451.999,387.366,452,373.972,448.282,361.385z"/>
			</defs>
			<clipPath id="SVGID_00000074429972546628015800000015870454914878241175_">
				<use xlink:href="#SVGID_00000036228601576574382120000013406765629188275865_"  style="overflow:visible;"/>
			</clipPath>
			
				<linearGradient id="SVGID_00000091720732242948978830000006463092624461395849_" gradientUnits="userSpaceOnUse" x1="352.1959" y1="362.7838" x2="361.0799" y2="362.7838" gradientTransform="matrix(0 -1 -1 0 670.7741 752.0906)">
				<stop  offset="0" style="stop-color:#000B17;stop-opacity:0.5"/>
				<stop  offset="0.9963" style="stop-color:#000000;stop-opacity:0"/>
			</linearGradient>
			
				<polygon style="clip-path:url(#SVGID_00000074429972546628015800000015870454914878241175_);fill:url(#SVGID_00000091720732242948978830000006463092624461395849_);" points="
				163.867,391.011 163.867,399.895 452.113,399.895 452.113,391.011 			"/>
			
				<linearGradient id="SVGID_00000049201991612714691380000018326887013515237546_" gradientUnits="userSpaceOnUse" x1="361.3559" y1="-919.4399" x2="370.24" y2="-919.4399" gradientTransform="matrix(0 1 1 0 1227.4303 0.0067)">
				<stop  offset="0" style="stop-color:#000B17;stop-opacity:0.5"/>
				<stop  offset="0.9963" style="stop-color:#000000;stop-opacity:0"/>
			</linearGradient>
			
				<polygon style="clip-path:url(#SVGID_00000074429972546628015800000015870454914878241175_);fill:url(#SVGID_00000049201991612714691380000018326887013515237546_);" points="
				452.113,370.247 452.113,361.363 163.867,361.363 163.867,370.247 			"/>
		</g>
	</g>
	<g>
		<g>
			<path style="fill:#FF8787;" d="M57.318,451.382l32.23-149.158c-7.476-4.086-15.974-5.922-24.47-5.288l-32.23,149.158
				C40.324,450.18,48.822,452.016,57.318,451.382z"/>
			<g>
				<path style="fill:#E67070;" d="M62.999,306.551l0.996-4.611c8.498-0.633,16.995,1.203,24.473,5.288l-0.996,4.611
					C79.994,307.754,71.497,305.918,62.999,306.551z"/>
				<path style="fill:#E67070;" d="M61.192,314.914l0.996-4.611c8.498-0.633,16.995,1.203,24.473,5.288l-0.996,4.611
					C78.187,316.117,69.689,314.281,61.192,314.914z"/>
				<path style="fill:#E67070;" d="M59.384,323.278l0.996-4.611c8.498-0.633,16.995,1.203,24.473,5.288l-0.996,4.611
					C76.379,324.481,67.882,322.645,59.384,323.278z"/>
				<path style="fill:#E67070;" d="M57.257,346.841l4.054-18.763c6.531-0.487,13.062,0.924,18.81,4.064l-4.054,18.763
					C70.319,347.766,63.788,346.355,57.257,346.841z"/>
			</g>
			<g>
				<path style="fill:#E67070;" d="M59.337,442.049l-0.996,4.611c-8.498,0.633-16.995-1.203-24.473-5.288l0.996-4.611
					C42.341,440.846,50.839,442.682,59.337,442.049z"/>
				<path style="fill:#E67070;" d="M61.144,433.685l-0.996,4.611c-8.498,0.633-16.995-1.203-24.473-5.288l0.996-4.611
					C44.149,432.483,52.646,434.319,61.144,433.685z"/>
				<path style="fill:#E67070;" d="M62.951,425.322l-0.996,4.611c-8.498,0.633-16.995-1.203-24.473-5.288l0.996-4.611
					C45.956,424.119,54.453,425.955,62.951,425.322z"/>
				<path style="fill:#E67070;" d="M65.078,401.759l-4.054,18.763c-6.531,0.487-13.062-0.924-18.81-4.064l4.054-18.763
					C52.016,400.834,58.547,402.245,65.078,401.759z"/>
			</g>
			<path style="fill:#E67070;" d="M73.044,364.893l2.427-11.231c-5.748-3.14-12.278-4.551-18.81-4.064l-4.054,18.763l0,0
				l-5.743,26.578c5.748,3.14,12.278,4.551,18.809,4.064L73.044,364.893L73.044,364.893z"/>
		</g>
		<g>
			<defs>
				<path id="SVGID_00000102526384390191735390000008578904205490696371_" d="M57.318,451.382l32.23-149.158
					c-7.476-4.086-15.974-5.922-24.47-5.288l-32.23,149.158C40.324,450.18,48.822,452.016,57.318,451.382z"/>
			</defs>
			<clipPath id="SVGID_00000038406557946564621690000010454414040287410346_">
				<use xlink:href="#SVGID_00000102526384390191735390000008578904205490696371_"  style="overflow:visible;"/>
			</clipPath>
			
				<linearGradient id="SVGID_00000133519611712102281980000001452214606127599497_" gradientUnits="userSpaceOnUse" x1="200.5993" y1="-1370.431" x2="205.8979" y2="-1370.431" gradientTransform="matrix(-0.9774 -0.2112 -0.2112 0.9774 -19.8701 1758.3232)">
				<stop  offset="0" style="stop-color:#000B17;stop-opacity:0.5"/>
				<stop  offset="0.9963" style="stop-color:#000000;stop-opacity:0"/>
			</linearGradient>
			
				<polygon style="clip-path:url(#SVGID_00000038406557946564621690000010454414040287410346_);fill:url(#SVGID_00000133519611712102281980000001452214606127599497_);" points="
				51.426,453.566 56.604,454.685 90.394,298.31 85.215,297.191 			"/>
			
				<linearGradient id="SVGID_00000000906534996034913700000006663711796394508189_" gradientUnits="userSpaceOnUse" x1="596.4777" y1="-1370.5085" x2="601.7762" y2="-1370.5085" gradientTransform="matrix(0.9774 0.2112 -0.2112 0.9774 -823.4206 1584.7687)">
				<stop  offset="0" style="stop-color:#000B17;stop-opacity:0.5"/>
				<stop  offset="0.9963" style="stop-color:#000000;stop-opacity:0"/>
			</linearGradient>
			
				<polygon style="clip-path:url(#SVGID_00000038406557946564621690000010454414040287410346_);fill:url(#SVGID_00000000906534996034913700000006663711796394508189_);" points="
				37.312,450.517 32.134,449.398 65.923,293.022 71.101,294.141 			"/>
		</g>
	</g>
	<g>
		<g>
			<path style="fill:#264360;" d="M97.287,451.443l49.498-232.293c-11.654-6.325-24.889-9.145-38.11-8.12L59.178,443.322
				C70.832,449.648,84.067,452.468,97.287,451.443z"/>
			<path style="fill:#1C334D;" d="M102.228,241.282l4.33-20.323c13.223-1.023,26.457,1.797,38.114,8.122l-4.33,20.323
				C128.685,243.078,115.451,240.259,102.228,241.282z"/>
			<path style="fill:#1C334D;" d="M94.119,313.927l11.273-52.904c8.331-0.645,16.668,1.132,24.013,5.117l-11.273,52.904
				C110.788,315.059,102.45,313.282,94.119,313.927z"/>
			<path style="fill:#1C334D;" d="M112.203,346.868l-11.273,52.904c-8.331,0.645-16.668-1.132-24.013-5.117l11.273-52.904
				C95.535,345.736,103.872,347.513,112.203,346.868z"/>
			<path style="fill:#1C334D;" d="M99.363,254.73l1.53-7.18c13.223-1.023,26.457,1.796,38.114,8.121l-1.53,7.18
				C125.819,256.526,112.586,253.706,99.363,254.73z"/>
			<path style="fill:#1C334D;" d="M103.642,421.636l-4.33,20.323c-13.223,1.023-26.457-1.796-38.114-8.122l4.33-20.323
				C77.186,419.839,90.419,422.659,103.642,421.636z"/>
			<path style="fill:#1C334D;" d="M106.508,408.188l-1.53,7.18c-13.223,1.023-26.457-1.796-38.114-8.121l1.53-7.18
				C80.051,406.392,93.284,409.212,106.508,408.188z"/>
			
				<ellipse transform="matrix(0.2084 -0.978 0.978 0.2084 -241.704 362.55)" style="fill:#1C334D;" cx="103.12" cy="330.592" rx="11.458" ry="15.359"/>
		</g>
		<g>
			<defs>
				<path id="SVGID_00000082330135974206209040000015509766195460733356_" d="M97.287,451.443l49.498-232.293
					c-11.654-6.325-24.889-9.145-38.11-8.12L59.178,443.322C70.832,449.648,84.067,452.468,97.287,451.443z"/>
			</defs>
			<clipPath id="SVGID_00000128452078269044419710000005589504812562989724_">
				<use xlink:href="#SVGID_00000082330135974206209040000015509766195460733356_"  style="overflow:visible;"/>
			</clipPath>
			
				<linearGradient id="SVGID_00000024692941314487687620000003793270505144795283_" gradientUnits="userSpaceOnUse" x1="800.1321" y1="737.1366" x2="808.692" y2="737.1366" gradientTransform="matrix(0.978 0.2084 0.2084 -0.978 -852.1378 880.9532)">
				<stop  offset="0" style="stop-color:#000B17;stop-opacity:0.5"/>
				<stop  offset="0.9963" style="stop-color:#000000;stop-opacity:0"/>
			</linearGradient>
			
				<polygon style="clip-path:url(#SVGID_00000128452078269044419710000005589504812562989724_);fill:url(#SVGID_00000024692941314487687620000003793270505144795283_);" points="
				118.217,207.321 109.846,205.537 58.176,448.025 66.547,449.809 			"/>
			
				<linearGradient id="SVGID_00000070090502385115200300000008034548011212353944_" gradientUnits="userSpaceOnUse" x1="272.6861" y1="737.0826" x2="281.246" y2="737.0826" gradientTransform="matrix(-0.978 -0.2084 0.2084 -0.978 235.1999 1112.5966)">
				<stop  offset="0" style="stop-color:#000B17;stop-opacity:0.5"/>
				<stop  offset="0.9963" style="stop-color:#000000;stop-opacity:0"/>
			</linearGradient>
			
				<polygon style="clip-path:url(#SVGID_00000128452078269044419710000005589504812562989724_);fill:url(#SVGID_00000070090502385115200300000008034548011212353944_);" points="
				139.585,211.874 147.956,213.658 96.285,456.146 87.914,454.362 			"/>
		</g>
	</g>
	<g>
		<g>
			<path style="fill:#EBEBEB;" d="M258.255,74.422H142.786V59.36C237.723,58.583,258.255,74.422,258.255,74.422z"/>
			<path style="fill:none;stroke:#EBEBEB;stroke-width:0.5;stroke-miterlimit:10;" d="M258.255,74.422
				c0,0-19.144-16.581-115.469-17.902"/>
			<path style="fill:none;stroke:#EBEBEB;stroke-width:0.5;stroke-miterlimit:10;" d="M258.255,74.422
				c0,0-19.389-18.692-115.469-21.904"/>
			<path style="fill:none;stroke:#EBEBEB;stroke-width:0.5;stroke-miterlimit:10;" d="M258.255,74.422
				c0,0-19.389-22.219-115.469-25.431"/>
			<path style="fill:none;stroke:#D6D6D6;stroke-width:0.75;stroke-miterlimit:10;" d="M142.786,62.117
				c0,0,77.767-1.468,114.164,12.218"/>
			<path style="fill:none;stroke:#D6D6D6;stroke-width:0.75;stroke-miterlimit:10;" d="M142.786,65.897
				c0,0,78.191-0.426,114.164,8.438"/>
			<path style="fill:none;stroke:#D6D6D6;stroke-width:0.75;stroke-miterlimit:10;" d="M142.786,70.692
				c0,0,78.283-0.645,114.164,3.643"/>
			<path style="fill:#EBEBEB;" d="M258.255,74.422h115.469V59.36C278.788,58.583,258.255,74.422,258.255,74.422z"/>
			<path style="fill:none;stroke:#EBEBEB;stroke-width:0.5;stroke-miterlimit:10;" d="M258.255,74.422
				c0,0,19.145-16.581,115.469-17.902"/>
			<path style="fill:none;stroke:#EBEBEB;stroke-width:0.5;stroke-miterlimit:10;" d="M258.255,74.422
				c0,0,19.389-18.692,115.469-21.904"/>
			<path style="fill:none;stroke:#EBEBEB;stroke-width:0.5;stroke-miterlimit:10;" d="M258.255,74.422
				c0,0,19.389-22.219,115.469-25.431"/>
			<path style="fill:none;stroke:#D6D6D6;stroke-width:0.75;stroke-miterlimit:10;" d="M373.725,62.117
				c0,0-77.767-1.468-114.164,12.218"/>
			<path style="fill:none;stroke:#D6D6D6;stroke-width:0.75;stroke-miterlimit:10;" d="M373.725,65.897
				c0,0-78.191-0.426-114.164,8.438"/>
			<path style="fill:none;stroke:#D6D6D6;stroke-width:0.75;stroke-miterlimit:10;" d="M373.725,70.692
				c0,0-78.283-0.645-114.164,3.643"/>
			<path style="fill:#264360;" d="M250.257,76.275H138.366c-0.69,0-1.249-0.559-1.249-1.249l0,0c0-0.69,0.559-1.249,1.249-1.249
				h111.891V76.275z"/>
			<path style="fill:#264360;" d="M378.145,76.275H266.254v-2.498h111.891c0.69,0,1.249,0.559,1.249,1.249l0,0
				C379.394,75.716,378.835,76.275,378.145,76.275z"/>
			<rect x="249.571" y="73.777" style="fill:#1C334D;" width="17.37" height="2.498"/>
		</g>
		<g>
			<defs>
				<path id="SVGID_7_" d="M257.245,73.777c-5.084-2.961-31.062-15.1-114.459-14.417v14.417h-4.42c-0.69,0-1.249,0.559-1.249,1.249
					c0,0.69,0.559,1.249,1.249,1.249h111.205h0.687h7.998v-2.498H257.245z"/>
			</defs>
			<clipPath id="SVGID_00000026875857584167677670000010679153731876367512_">
				<use xlink:href="#SVGID_7_"  style="overflow:visible;"/>
			</clipPath>
			
				<linearGradient id="SVGID_00000026139585352232047360000015240281404933661371_" gradientUnits="userSpaceOnUse" x1="489.016" y1="473.9793" x2="497.112" y2="473.9793" gradientTransform="matrix(0 -1 -1 0 670.7741 565.3154)">
				<stop  offset="0" style="stop-color:#000B17;stop-opacity:0.5"/>
				<stop  offset="0.9963" style="stop-color:#000000;stop-opacity:0"/>
			</linearGradient>
			
				<polygon style="clip-path:url(#SVGID_00000026875857584167677670000010679153731876367512_);fill:url(#SVGID_00000026139585352232047360000015240281404933661371_);" points="
				135.334,68.203 135.334,76.299 258.255,76.299 258.255,68.203 			"/>
		</g>
		<g>
			<defs>
				<path id="SVGID_10_" d="M259.266,73.777c5.084-2.961,31.062-15.1,114.459-14.417v14.417h4.42c0.69,0,1.249,0.559,1.249,1.249
					c0,0.69-0.559,1.249-1.249,1.249H266.94h-0.687h-7.998v-2.498H259.266z"/>
			</defs>
			<clipPath id="SVGID_00000049902418905216207150000009988561678987537843_">
				<use xlink:href="#SVGID_10_"  style="overflow:visible;"/>
			</clipPath>
			
				<linearGradient id="SVGID_00000114763634624538796050000016776533312410037121_" gradientUnits="userSpaceOnUse" x1="489.016" y1="278.8468" x2="497.112" y2="278.8468" gradientTransform="matrix(0 -1 1 0 40.8692 565.3154)">
				<stop  offset="0" style="stop-color:#000B17;stop-opacity:0.5"/>
				<stop  offset="0.9963" style="stop-color:#000000;stop-opacity:0"/>
			</linearGradient>
			
				<polygon style="clip-path:url(#SVGID_00000049902418905216207150000009988561678987537843_);fill:url(#SVGID_00000114763634624538796050000016776533312410037121_);" points="
				381.177,68.203 381.177,76.299 258.255,76.299 258.255,68.203 			"/>
		</g>
	</g>
</g>
</svg>
